# xmcd CD database file
#
# Track frame offsets:
#	150
#	14593
#	27005
#	41435
#
# Disc length: 717 seconds
#
# Revision: 0
# Processed by: cddbd v1.5.2PL0 Copyright (c) Steve Scherf et al.
# Submitted via: CDex 1.60beta1
#
DISCID=2502cb04
DTITLE=時東ぁみ - せんちめんたる じぇねれ〜しょん
DYEAR=2006
DGENRE=JPop
TTITLE0=せんちめんたる じぇねれ〜しょん
TTITLE1=この涙があるから次の一歩となる
TTITLE2=せんちめんたる じぇねれ〜しょん（オリジナル・カラオケ）
TTITLE3=この涙があるから次の一歩となる（オリジナル・カラオケ）
EXTD=YEAR: 2006/04/19
EXTT0=
EXTT1=
EXTT2=
EXTT3=
PLAYORDER=
